# xmcd
#
# Track frame offsets:
#	150
#	15001
#	29118
#	42764
#	56314
#	67796
#	83134
#	97396
#	114653
#	128410
#	141779
#	157035
#	176899
#	195204
#	210097
#	229302
#	243193
#	255460
#
# Disc length: 3732 seconds
#
# Revision: 1
# Processed by: cddbd v1.5.2PL0 Copyright (c) Steve Scherf et al.
# Submitted via: audiograbber 1.83.01
#
DISCID=e20e9212
DTITLE=Various Artist - Country Music Messe 2012 CD 2
DYEAR=2012
DGENRE=Country
TTITLE0=Jolina Carl und Gitty - Dancing At The Party
TTITLE1=Jimmy Roggers - Midnight Train
TTITLE2=Billy Yates - MFC (Mama´s Fried Chicken)
TTITLE3=Barry P. Foley - Airport Love Story
TTITLE4=Mark Merritt - Boats, Beaches, Bikinis And Beer
TTITLE5=Danny June Smith - Back In The Bar
TTITLE6=Reverend Bob and Just In Time - Hayride
TTITLE7=C. C. Tennissen - Ghostriders In The Sky
TTITLE8=Horse Mountain - Long Black Limousine
TTITLE9=Desert Track - Rollin´
TTITLE10=Daniel T. Coates - Let That One Run
TTITLE11=Henry Eye - Stagefright
TTITLE12=The Lennerockers - Travel On
TTITLE13=Tex Robinson - You Never Know
TTITLE14=Peterson´s Band - Your Cheatin´ Heart
TTITLE15=Mike O´Donoghue - The Wild Rover
TTITLE16=Roxanna Red - Sweet And Wild
TTITLE17=Ulli Möhring - Gemeinsam Sind Wir Stark
EXTD=
EXTT0=
EXTT1=
EXTT2=
EXTT3=
EXTT4=
EXTT5=
EXTT6=
EXTT7=
EXTT8=
EXTT9=
EXTT10=
EXTT11=
EXTT12=
EXTT13=
EXTT14=
EXTT15=
EXTT16=
EXTT17=
PLAYORDER=
